<?xml version="1.0" encoding="UTF-8"?>
<svg xmlns="http://www.w3.org/2000/svg" viewBox="0 0 163.68 163.68"><defs><style>.cls-1{fill:#135c80;}.cls-2{fill:#f1f2f2;}</style></defs><g id="Layer_2" data-name="Layer 2"><g id="Layer_1-2" data-name="Layer 1"><circle class="cls-1" cx="81.84" cy="81.84" r="81.84"/><path class="cls-2" d="M65.34,66.41c8.37-5.81,19.43-9,31.14-9q2.43,0,4.8.18C93.93,50,81.43,45,67.25,45c-22.62,0-41,12.73-41,28.43,0,6.6,3.25,12.68,8.69,17.51l-5.54,16.7,17.85-9.38a50.15,50.15,0,0,0,6.88,2.12A24.59,24.59,0,0,1,51.7,89.66C51.7,80.77,56.54,72.52,65.34,66.41Z"/><path class="cls-2" d="M137.39,90c0-15.7-18.34-28.43-40.95-28.43s-41,12.73-41,28.43,18.34,28.43,41,28.43a55.48,55.48,0,0,0,20-3.6l17.84,9.38-5.54-16.7C134.14,102.69,137.39,96.61,137.39,90Zm-17,11.68h-48a.55.55,0,0,1,0-1.1h48a.55.55,0,0,1,0,1.1Zm0-10.37h-48a.55.55,0,0,1,0-1.1h48a.55.55,0,0,1,0,1.1Zm0-10.37h-48a.55.55,0,1,1,0-1.09h48a.55.55,0,0,1,0,1.09Z"/></g></g></svg>